<svg width="31" height="31" viewBox="0 0 31 31" fill="none" xmlns="http://www.w3.org/2000/svg">
<path fill-rule="evenodd" clip-rule="evenodd" d="M30.0667 9.07914C30.0667 8.5386 29.886 8.07083 29.5247 7.67581C29.1633 7.2808 28.719 7.0833 28.1917 7.0833H24.9983C25.4084 6.6675 25.7356 6.17374 25.9797 5.60201C26.2239 5.03028 26.3459 4.39099 26.3459 3.68413C26.3459 2.81094 26.0823 1.98975 25.5549 1.22051C25.0276 0.451277 24.1096 0.0666656 22.801 0.0666656C21.9416 0.0666656 21.1213 0.284959 20.3401 0.721551C19.5588 1.15814 18.8362 1.68828 18.1721 2.31199C17.5081 2.93569 16.9172 3.59577 16.3997 4.29224C15.8821 4.98871 15.4573 5.6176 15.1252 6.17893C14.7932 5.6176 14.3635 4.98871 13.8362 4.29224C13.3088 3.59577 12.7083 2.93569 12.0344 2.31199C11.3606 1.68828 10.6282 1.15814 9.83716 0.721551C9.04614 0.284959 8.22095 0.0666656 7.36157 0.0666656C6.05297 0.0666656 5.13501 0.451277 4.60767 1.22051C4.08032 1.98975 3.81665 2.81094 3.81665 3.68413C3.81665 4.39099 3.93872 5.03028 4.18286 5.60201C4.427 6.17374 4.76391 6.67789 5.1936 7.11448H1.94165C1.4143 7.11448 0.969973 7.30679 0.608643 7.69141C0.247313 8.07602 0.0666504 8.54899 0.0666504 9.11032V15.0667H1.97095V28.0708C1.97095 28.6114 2.15161 29.0791 2.51294 29.4741C2.87427 29.8692 3.3186 30.0667 3.84595 30.0667H26.3167C26.844 30.0667 27.2883 29.8692 27.6497 29.4741C28.011 29.0791 28.1917 28.6114 28.1917 28.0708V15.0667H30.0667V9.07914ZM22.801 2.06195C23.387 2.06195 23.8118 2.19709 24.0754 2.46736C24.3391 2.73763 24.471 3.14303 24.471 3.68358C24.471 4.78545 23.9924 5.62744 23.0354 6.20956C22.0784 6.79169 21.053 7.08274 19.9592 7.08274H16.7952C17.4592 6.04324 18.3332 4.94657 19.4172 3.79272C20.5012 2.63887 21.6291 2.06195 22.801 2.06195ZM7.36157 2.06195C8.53345 2.06195 9.67602 2.63887 10.7893 3.79272C11.9026 4.94657 12.7913 6.04324 13.4553 7.08274H10.2913C9.19751 7.08274 8.15748 6.78649 7.17114 6.19397C6.18481 5.60145 5.69165 4.75427 5.69165 3.65239C5.69165 3.11185 5.82349 2.71164 6.08716 2.45177C6.35083 2.19189 6.77563 2.06195 7.36157 2.06195ZM28.1917 13.0709H16.0042V9.07922H28.1917V13.0709ZM1.94165 9.07922H14.1292V13.0709H1.94165V9.07922ZM3.84595 15.0662H14.1292V28.0704H3.84595V15.0662ZM26.3167 28.0704H16.0042V15.0662H26.3167V28.0704Z" fill="white"/>
</svg>
