<svg width="28" height="17" viewBox="0 0 28 17" fill="none" xmlns="http://www.w3.org/2000/svg">
<path fill-rule="evenodd" clip-rule="evenodd" d="M8.37851 0.326721C9.15881 0.326721 9.86797 0.393414 10.5127 0.53569C11.154 0.68019 11.702 0.902498 12.1633 1.21373C12.619 1.52496 12.9781 1.93623 13.2304 2.45865C13.4805 2.98108 13.6083 3.62577 13.6083 4.38161C13.6083 5.20415 13.4193 5.89331 13.0448 6.44908C12.6691 7.00485 12.1144 7.44946 11.3752 7.80515C12.3823 8.09415 13.127 8.60546 13.6228 9.32796C14.1207 10.0616 14.3619 10.9397 14.3619 11.9512C14.3619 12.7848 14.2174 13.4962 13.9062 14.0965C13.595 14.7078 13.1615 15.208 12.6168 15.597C12.0833 15.9839 11.4497 16.264 10.7605 16.4496C10.0825 16.633 9.36889 16.7319 8.6375 16.7319H0.666656V0.334502H8.37851V0.326721ZM19.4961 13.845C19.9852 14.3208 20.6888 14.5598 21.6014 14.5598C22.2572 14.5598 22.8241 14.3953 23.302 14.0629C23.7733 13.7406 24.0579 13.3849 24.169 13.0181H27.0457C26.5977 14.4408 25.8808 15.4634 24.9338 16.0748C23.989 16.6973 22.8396 16.9974 21.5102 16.9974C20.5799 16.9974 19.7496 16.8529 18.9848 16.5528C18.2367 16.2526 17.6065 15.8303 17.073 15.2856C16.5572 14.7409 16.1582 14.0851 15.8758 13.3182C15.5946 12.5512 15.4612 11.7064 15.4612 10.795C15.4612 9.90241 15.6113 9.08321 15.9092 8.31625C16.2093 7.53817 16.625 6.89348 17.1541 6.3266C17.7043 5.75971 18.3357 5.33177 19.0837 4.99942C19.8318 4.66707 20.6399 4.51812 21.5514 4.51812C22.5629 4.51812 23.4299 4.70041 24.1968 5.09946C24.9415 5.47738 25.5529 6.01092 26.042 6.65561C26.531 7.30697 26.8756 8.05615 27.0868 8.90092C27.298 9.73457 27.3647 10.6127 27.3202 11.5464H18.7725C18.7725 12.4801 19.0837 13.3604 19.5617 13.8417L19.4728 13.8751L19.4961 13.845ZM8.11396 13.9011C8.46632 13.9011 8.80312 13.8677 9.12102 13.7977C9.44337 13.731 9.73014 13.6143 9.96912 13.4642C10.2025 13.3142 10.4026 13.0997 10.5471 12.8162C10.6916 12.5494 10.7583 12.1826 10.7583 11.7491C10.7583 10.9155 10.5138 10.3152 10.0469 9.94844C9.56897 9.59275 8.94651 9.4149 8.16843 9.4149H4.26804V13.9166H8.11396V13.8833V13.9011ZM23.2387 7.62058C22.8474 7.19264 22.1938 6.96255 21.3969 6.96255C20.8767 6.96255 20.4465 7.0448 20.1008 7.2271C19.7651 7.39383 19.4895 7.61613 19.2783 7.8829C19.0671 8.14967 18.9259 8.41644 18.8425 8.71656C18.7592 9.00556 18.7092 9.27233 18.6925 9.50575H23.9856C23.9078 8.6721 23.6188 8.06075 23.2298 7.62725V7.63836L23.2387 7.62058ZM7.91389 6.93718C8.55191 6.93718 9.081 6.78823 9.49783 6.47923C9.91354 6.17911 10.1136 5.67892 10.1136 4.99199C10.1136 4.60962 10.0358 4.29728 9.91354 4.05163C9.76904 3.80709 9.58008 3.61813 9.35778 3.48252C9.12435 3.34469 8.85758 3.2491 8.55747 3.19685C8.25735 3.13794 7.93501 3.1146 7.62378 3.1146H4.25692V6.93829H7.91389V6.93718ZM18.0267 1.42589H24.6603V3.04207H18.0267V1.41255V1.42367V1.42589Z" fill="#3D3D3D"/>
</svg>
