<svg width="28" height="27" viewBox="0 0 28 27" fill="none" xmlns="http://www.w3.org/2000/svg">
<path fill-rule="evenodd" clip-rule="evenodd" d="M14 26.9934C6.64999 26.9934 0.666656 21.0101 0.666656 13.6601C0.666656 6.31005 6.64999 0.326721 14 0.326721C21.35 0.326721 27.3333 6.31005 27.3333 13.6601C27.3333 21.0101 21.35 26.9934 14 26.9934ZM25.2444 15.4844C24.8555 15.3622 21.7222 14.4255 18.1511 14.9978C19.64 19.0911 20.2478 22.4244 20.3644 23.1178C22.92 21.39 24.7378 18.6511 25.2478 15.4844H25.2444ZM18.45 24.1601C18.28 23.1601 17.6167 19.6801 16.0167 15.5268L15.9433 15.549C9.50999 17.7879 7.20999 22.2435 7.00999 22.6601C8.93221 24.169 11.3655 25.0668 13.9989 25.0668C15.5767 25.0668 17.0767 24.7446 18.4433 24.1624L18.45 24.1601ZM5.53888 21.2934C5.79666 20.849 8.92221 15.6768 14.7967 13.7768C14.9467 13.7268 15.0967 13.6834 15.2467 13.6434C14.9578 12.9934 14.6467 12.3468 14.3222 11.7101C8.63332 13.4101 3.11777 13.3379 2.61777 13.3268L2.61332 13.6734C2.61332 16.599 3.72221 19.2701 5.53999 21.2901L5.53888 21.2934ZM2.84999 11.3435C3.3611 11.3524 8.05332 11.3724 13.38 9.95684C11.4933 6.6035 9.45777 3.78128 9.15777 3.37017C5.9711 4.87017 3.5911 7.8035 2.8511 11.3368L2.84999 11.3435ZM11.3333 2.60657C11.6467 3.0288 13.7167 5.84435 15.58 9.27324C19.63 7.75658 21.3467 5.45102 21.55 5.15991C19.5389 3.37102 16.8944 2.28657 14 2.28657C13.0833 2.28657 12.1889 2.39769 11.3333 2.60324V2.60657ZM22.8167 6.47701C22.5744 6.79923 20.6667 9.24701 16.4567 10.9659C16.7233 11.5103 16.9789 12.0603 17.2122 12.617C17.3011 12.817 17.3789 13.017 17.4567 13.2059C21.2455 12.7281 25.0122 13.4948 25.39 13.5726C25.3678 10.8837 24.4122 8.41701 22.8233 6.48367L22.8167 6.47701Z" fill="#3D3D3D"/>
</svg>
