<svg width="27" height="23" viewBox="0 0 27 23" fill="none" xmlns="http://www.w3.org/2000/svg">
<path fill-rule="evenodd" clip-rule="evenodd" d="M26.6157 3.27991C25.657 3.71863 24.6333 4.0175 23.5555 4.15396C24.6539 3.46487 25.4989 2.3788 25.8986 1.08296C24.8684 1.70889 23.7266 2.16452 22.5112 2.41827C21.5405 1.33671 20.1572 0.660034 18.6211 0.660034C15.6778 0.660034 13.2913 3.14458 13.2913 6.20543C13.2913 6.64527 13.34 7.0682 13.4289 7.47308C8.99823 7.25541 5.07131 5.04041 2.44325 1.69197C1.98069 2.50624 1.72178 3.45247 1.72178 4.48328C1.72178 6.41182 2.66424 8.1069 4.09201 9.10275C3.2178 9.07342 2.39558 8.82305 1.67845 8.40802V8.47682C1.67845 11.1666 3.51245 13.4098 5.9531 13.9207C5.5057 14.0459 5.03339 14.1136 4.54916 14.1136C4.20901 14.1136 3.88294 14.0797 3.55687 14.0166C4.24042 16.2192 6.20551 17.8252 8.54433 17.8703C6.7244 19.3578 4.41808 20.2443 1.9341 20.2443C1.51162 20.2443 1.09022 20.2183 0.666656 20.1687C3.03797 21.7409 5.83177 22.66 8.85307 22.66C18.6612 22.66 24.018 14.206 24.018 6.88662C24.018 6.65091 24.018 6.41294 24.0018 6.17611C25.0428 5.39905 25.9517 4.41674 26.6667 3.30247L26.6157 3.27991Z" fill="#3D3D3D"/>
</svg>
