<!-- Embeded svg sprite reference -->
<svg display="none" xmlns="http://www.w3.org/2000/svg">
    <symbol id="ic-twitter" viewBox="0 0 27 23" xmlns="http://www.w3.org/2000/svg">
        <path fill-rule="evenodd" clip-rule="evenodd" d="M26.616 3.28c-.959.439-1.983.738-3.06.874a5.558 5.558 0 0 0 2.343-3.071 10.747 10.747 0 0 1-3.388 1.335C21.541 1.337 20.157.66 18.621.66c-2.943 0-5.33 2.485-5.33 5.545 0 .44.049.863.138 1.268C8.999 7.255 5.07 5.04 2.443 1.692a5.61 5.61 0 0 0-.721 2.791c0 1.929.942 3.624 2.37 4.62a5.154 5.154 0 0 1-2.414-.695v.069c0 2.69 1.834 4.933 4.275 5.444a5.211 5.211 0 0 1-2.396.096c.683 2.202 2.649 3.808 4.987 3.853A10.426 10.426 0 0 1 .667 20.17c2.371 1.572 5.165 2.491 8.186 2.491 9.808 0 15.165-8.454 15.165-15.773 0-.236 0-.474-.016-.71a11.02 11.02 0 0 0 2.665-2.875l-.051-.022z"/>
    </symbol>
</svg>
